<svg xmlns="http://www.w3.org/2000/svg" viewBox="0 0 900 600"><rect width="900" height="600" rx="48" fill="#f7faf8"/><rect x="135" y="295" width="250" height="150" rx="22" fill="#10201a"/><g stroke="#2f6f58" stroke-width="5"><path d="M165 330h190M165 370h190M205 315v115M260 315v115M315 315v115"/></g><rect x="465" y="160" width="250" height="290" rx="30" fill="#fff" stroke="#d7e4dc" stroke-width="8"/><rect x="505" y="215" width="170" height="70" rx="18" fill="#eaf8f0"/><path d="M562 230h42l-30 46h38l-70 70 22-56h-36z" fill="#0a8f5a"/><rect x="505" y="340" width="170" height="50" rx="18" fill="#10201a"/><path d="M390 375c45 0 45-120 92-120" stroke="#0a8f5a" stroke-width="10" fill="none" stroke-linecap="round"/><circle cx="725" cy="145" r="40" fill="#f8c95f" opacity=".9"/></svg>